<svg width="72" height="72" viewBox="0 0 72 72" fill="none" xmlns="http://www.w3.org/2000/svg">
<path d="M28.11 52.53C18.84 55.1101 33.72 60.45 45.51 55.53C44.3659 55.0851 43.2618 54.5431 42.21 53.91C38.1167 54.842 33.8885 55.0249 29.73 54.45C25.8 54 28.11 52.53 28.11 52.53ZM44.1 47.49C38.8201 48.6383 33.3862 48.9019 28.02 48.27C24.09 47.85 26.67 45.96 26.67 45.96C16.47 49.32 32.34 53.16 46.59 48.96C45.6636 48.6557 44.8141 48.1542 44.1 47.49ZM49.56 18.3C49.56 18.3 28.95 23.43 38.79 34.7701C39.1739 35.2303 39.46 35.7639 39.6307 36.3384C39.8015 36.9129 39.8534 37.5162 39.7832 38.1114C39.713 38.7066 39.5222 39.2813 39.2225 39.8003C38.9228 40.3193 38.5204 40.7717 38.04 41.13C38.04 41.13 45.42 37.3201 42.03 32.5501C38.64 27.7801 36.45 25.89 49.56 18.3Z" fill="#FF6584"/>
<path d="M54.39 57.42C54.39 57.42 56.07 58.8 52.5 59.88C45.69 61.95 24.21 62.58 18.24 59.88C16.08 58.95 20.1 57.66 21.24 57.39C21.9158 57.2156 22.6123 57.1348 23.31 57.15C20.91 55.47 7.86001 60.45 16.68 61.89C40.83 66 60.6 60.21 54.39 57.42ZM46.11 42.78C46.9922 42.2221 47.9147 41.7307 48.87 41.31C48.87 41.31 44.34 42.12 39.87 42.51C35.0632 42.9739 30.2254 43.0241 25.41 42.66C18.27 41.73 29.22 39 29.22 39C25.9248 38.9745 22.6723 39.7464 19.74 41.25C13.56 44.34 35.01 45.69 46.11 42.78ZM48.84 50.1C48.7745 50.2019 48.6935 50.293 48.6 50.37C63.6 46.41 58.14 36.42 50.94 38.94C50.5428 39.0861 50.1982 39.3472 49.95 39.69C49.95 39.69 50.37 39.54 51.24 39.33C54.9 38.58 60 44.22 48.84 50.1ZM36 39C33.78 33.99 26.22 29.58 36 21.87C48.27 12.24 42 6 42 6C44.52 15.93 33 18.93 28.98 25.11C26.19 29.34 30.39 33.87 36 39Z" fill="#FF6584"/>
<path d="M49.23 63.96C40.1662 65.5117 30.9171 65.6534 21.81 64.38C21.81 64.38 23.19 65.52 30.33 65.97C41.16 66.66 57.78 65.61 58.2 60.48C58.2 60.48 57.42 62.4 49.23 63.96Z" fill="#FF6584"/>
</svg>
