<svg width="72" height="72" viewBox="0 0 72 72" fill="none" xmlns="http://www.w3.org/2000/svg">
<path d="M32.22 38.67V38.34C32.4 37.89 32.58 37.47 32.79 37.05C34.4504 33.5408 34.7289 29.5352 33.57 25.83C33.5095 25.3009 33.2867 24.8034 32.9322 24.4059C32.5777 24.0084 32.1088 23.7304 31.59 23.61C29.3582 23.4547 27.1445 24.1039 25.35 25.44V25.98C25.5471 28.3896 25.4868 30.8132 25.17 33.21C24.9998 34.2858 25.079 35.3863 25.4015 36.4266C25.724 37.4669 26.2811 38.4192 27.03 39.21C27.5816 39.7968 28.2458 40.2666 28.9828 40.5913C29.7198 40.916 30.5147 41.089 31.32 41.1C31.5763 40.2745 31.8768 39.4633 32.22 38.67ZM30 25.74C29.8315 25.549 29.7358 25.3047 29.73 25.05C29.7482 24.9748 29.7816 24.9041 29.828 24.8422C29.8744 24.7803 29.9329 24.7285 30 24.69C30.4428 24.4602 30.9501 24.3862 31.44 24.48C32.19 24.48 32.94 24.96 32.88 25.5C32.768 25.7972 32.5664 26.0521 32.303 26.2295C32.0396 26.4069 31.7275 26.498 31.41 26.49H31.23C30.7371 26.4122 30.2949 26.1426 30 25.74Z" fill="#FF6584"/>
<path d="M23.64 33C23.9106 30.7103 23.9709 28.4006 23.82 26.1V25.26C23.7018 20.3074 25.3382 15.4726 28.44 11.61C25.44 10.65 18.24 8.60995 13.83 11.91C11.13 13.83 9.86998 17.43 10.14 22.56C10.7376 27.0418 11.7418 31.46 13.14 35.76C15.18 42.42 17.49 46.62 19.47 47.31C19.77 47.31 20.7 47.7 22.05 46.08C23.97 43.7999 25.74 41.85 26.55 40.98L25.98 40.41C25.0404 39.442 24.3396 38.2682 23.9333 36.9818C23.5271 35.6954 23.4267 34.332 23.64 33ZM34.14 43.2C33.66 43.02 33.42 42.9 32.88 43.53C32.5589 43.853 32.2678 44.2045 32.01 44.58C30.96 45.87 30.51 46.32 27.48 46.95C27.0696 47.0181 26.6675 47.1287 26.28 47.28C26.6136 47.5136 26.9912 47.677 27.39 47.76C28.7325 48.214 30.1851 48.226 31.5349 47.794C32.8847 47.3621 34.0605 46.509 34.89 45.36C34.9675 45.1958 35.0077 45.0165 35.0077 44.835C35.0077 44.6534 34.9675 44.4741 34.89 44.31C34.7951 43.856 34.5258 43.4574 34.14 43.2ZM53.01 25.74C53.1492 24.9571 53.2295 24.1648 53.25 23.37C51.27 23.13 48.99 23.1599 48.09 24.4499C46.35 26.9399 49.77 33.09 51.09 35.7C51.3799 36.1631 51.6405 36.6441 51.87 37.14C51.9897 37.4637 52.1404 37.7751 52.32 38.07C53.1012 36.0327 53.2681 33.8111 52.8 31.68C52.6564 30.6362 52.5862 29.5836 52.59 28.53C52.6568 27.5904 52.7972 26.6575 53.01 25.74ZM51.33 25.26C51.0702 25.5248 50.7349 25.703 50.37 25.77H50.19C49.9047 25.7711 49.6259 25.6856 49.3902 25.5249C49.1545 25.3643 48.9732 25.1359 48.87 24.87C48.87 24.45 49.47 24.15 50.19 24.03C50.91 23.91 51.63 24.03 51.69 24.4799C51.6763 24.7769 51.5471 25.0568 51.33 25.26Z" fill="#FF6584"/>
<path d="M51 14.6401C52.9764 16.8378 54.3871 19.4842 55.11 22.3501C55.1259 22.4996 55.1259 22.6505 55.11 22.8001C55.1199 23.8662 55.0295 24.9309 54.84 25.9801C54.6978 26.8338 54.6076 27.6954 54.57 28.5601C54.564 29.5639 54.6342 30.5668 54.78 31.5601C55.386 34.3128 55.0037 37.191 53.7 39.6901L53.91 39.9301C60.57 29.4601 62.91 17.3101 60.78 14.6401C59.4156 12.9247 57.6754 11.5458 55.6936 10.6095C53.7119 9.67323 51.5415 9.2047 49.35 9.24006C47.7072 9.21713 46.067 9.37813 44.46 9.72006C46.9798 10.8515 49.2144 12.5326 51 14.6401Z" fill="#FF6584"/>
<path d="M64.95 42C64.74 41.4 63.84 39.45 60.54 40.14C59.5521 40.3502 58.5488 40.4807 57.54 40.53C60.2484 35.9498 62.3271 31.0255 63.72 25.89C64.83 21.54 65.7 15.72 63.39 12.75C61.6934 10.5978 59.5209 8.8682 57.0432 7.69702C54.5655 6.52584 51.85 5.94497 49.11 6.00004C46.6117 5.98402 44.1247 6.33786 41.73 7.05004C40.2931 6.79749 38.8387 6.65706 37.38 6.63004C34.7977 6.57697 32.2487 7.21941 30 8.49004C28.2654 7.91838 26.4904 7.47715 24.69 7.17004C22.5508 6.62463 20.3233 6.51889 18.142 6.85922C15.9608 7.19955 13.8713 7.97888 12 9.15004C8.28001 11.76 6.57001 16.32 6.87001 22.71C7.44272 27.4614 8.44686 32.1508 9.87001 36.72C10.7165 39.5789 11.8314 42.3512 13.2 45C14.1752 47.4394 16.0566 49.4068 18.45 50.49C19.3175 50.7725 20.2446 50.8186 21.1357 50.6235C22.0269 50.4284 22.85 49.9992 23.52 49.38C24.323 50.2537 25.367 50.8697 26.52 51.15C28.8519 51.7925 31.3309 51.6448 33.57 50.73V53.16C33.5448 55.5521 33.8579 57.9357 34.5 60.24C34.5085 60.3699 34.5085 60.5002 34.5 60.63C34.9 62.0235 35.6308 63.2997 36.63 64.35C37.8383 65.4806 39.4462 66.0849 41.1 66.03C41.807 66.0328 42.5119 65.9522 43.2 65.79C44.5039 65.6312 45.7626 65.2121 46.9015 64.5576C48.0404 63.9032 49.0363 63.0266 49.83 61.98C51.862 58.3208 52.809 54.1582 52.56 49.98V49.2H53.07C55.5309 49.3705 57.9974 48.9594 60.27 48C61.62 47.31 66 45 64.95 42ZM59.52 46.41C57.8043 47.1009 55.9695 47.4475 54.12 47.43C53.3193 47.4514 52.5201 47.3502 51.75 47.13C51.45 49.95 50.79 55.2 50.4 57.39C50.2848 59.1569 49.5408 60.8242 48.3026 62.0899C47.0644 63.3556 45.4139 64.1361 43.65 64.29C42.999 64.4278 42.3355 64.4982 41.67 64.5C40.3639 64.4696 39.1033 64.0136 38.08 63.2014C37.0566 62.3892 36.3263 61.2652 36 60C35.2266 55.9892 34.9445 51.8991 35.16 47.82C33.6996 49.14 31.788 49.8488 29.82 49.8C28.8677 49.7841 27.9209 49.6532 27 49.41C26.73 49.41 24.39 48.72 24.42 47.22C24.45 45.72 26.4 45.45 27.12 45.3C29.7 44.76 29.88 44.55 30.69 43.53C30.8667 43.2798 31.057 43.0394 31.26 42.81C30.0961 42.7664 28.9574 42.4587 27.93 41.91C27.24 42.66 25.35 44.7 23.31 47.13C22.9392 47.6814 22.4454 48.1392 21.8676 48.4672C21.2897 48.7952 20.6435 48.9844 19.98 49.02C19.6318 49.0701 19.2782 49.0701 18.93 49.02C16.29 48 13.8 43.65 11.52 36C10.1044 31.5719 9.1002 27.0226 8.52001 22.41C8.22001 16.65 9.72001 12.57 12.93 10.41C18.69 6.33004 27.93 9.48004 30.03 10.23C32.1667 8.81492 34.7004 8.12105 37.26 8.25004C38.6772 8.25153 40.0885 8.43298 41.46 8.79004C43.8741 7.96848 46.4101 7.56272 48.96 7.59004C51.4368 7.52194 53.8957 8.02819 56.1441 9.06913C58.3926 10.1101 60.3695 11.6574 61.92 13.59C63.99 16.23 62.61 22.59 61.92 25.26C60.3807 31.0174 57.9406 36.495 54.69 41.49C55.17 41.82 56.64 42.42 60.69 41.49C62.07 41.19 62.88 41.49 63.15 42.24C63.81 43.89 61.05 45.63 59.52 46.35V46.41Z" fill="#FF6584"/>
<path d="M52.29 40.77C51.5255 39.8672 50.8988 38.8562 50.43 37.77C50.43 37.56 50.07 37.05 49.74 36.48C48 33.48 44.37 26.82 46.74 23.46C47.5379 22.6116 48.5496 21.9939 49.6688 21.6719C50.788 21.3498 51.9733 21.3354 53.1 21.63C52.3288 19.5021 51.1804 17.5306 49.71 15.81C48.2108 13.963 46.3238 12.4681 44.1827 11.4313C42.0416 10.3944 39.6988 9.84095 37.32 9.81001C35.9163 9.72153 34.5097 9.92957 33.1916 10.4206C31.8736 10.9116 30.6737 11.6746 29.67 12.66C27.1157 15.6691 25.6564 19.455 25.53 23.4L25.98 23.16C27.2273 22.4872 28.5919 22.0595 30 21.9C30.5828 21.765 31.1871 21.7517 31.7752 21.8608C32.3633 21.9699 32.9226 22.1992 33.4181 22.5342C33.9136 22.8693 34.3347 23.3029 34.6551 23.808C34.9755 24.3132 35.1882 24.8789 35.28 25.47C36.5134 29.5273 36.2036 33.8973 34.41 37.74C34.215 38.1186 34.0446 38.5094 33.9 38.91V39.24C33.6 40.05 33.33 40.8 33.15 41.43C33.728 41.3199 34.3259 41.3933 34.86 41.64C35.3113 41.8548 35.711 42.1642 36.0319 42.5473C36.3529 42.9304 36.5876 43.3781 36.72 43.86V44.34C36.7346 44.4294 36.7346 44.5206 36.72 44.61C36.3969 49.5194 36.6182 54.4494 37.38 59.31C37.5151 59.9449 37.786 60.5431 38.174 61.0635C38.562 61.5839 39.0581 62.0141 39.628 62.3248C40.198 62.6354 40.8285 62.8191 41.4761 62.8631C42.1237 62.9072 42.7732 62.8106 43.38 62.58C44.8085 62.4837 46.1499 61.8588 47.1427 60.8272C48.1355 59.7955 48.7085 58.4311 48.75 57C49.2 54.36 50.1 46.95 50.22 45.36C50.22 42.18 51.78 41.55 52.74 41.28L52.29 40.77Z" fill="#FF6584"/>
<path d="M54 42.9901L53.76 42.8101H53.4C52.62 43.0201 51.9 43.2301 51.99 45.2101C52.8753 45.5613 53.8345 45.685 54.78 45.5701C56.1985 45.5104 57.5974 45.2164 58.92 44.7001C59.7875 44.3086 60.5874 43.7821 61.29 43.1401C58.9214 43.9706 56.3324 43.9173 54 42.9901Z" fill="#FF6584"/>
</svg>
